<?xml version="1.0" standalone="no"?>
<!DOCTYPE svg PUBLIC "-//W3C//DTD SVG 20010904//EN"
 "http://www.w3.org/TR/2001/REC-SVG-20010904/DTD/svg10.dtd">
<svg version="1.0" xmlns="http://www.w3.org/2000/svg"
 width="1228.000000pt" height="342.000000pt" viewBox="0 0 1228.000000 342.000000"
 preserveAspectRatio="xMidYMid meet">

<g transform="translate(0.000000,342.000000) scale(0.100000,-0.100000)"
fill="#000000" stroke="none">
<path d="M3124 2460 c-453 -35 -710 -206 -791 -527 -25 -98 -24 -392 1 -482
48 -175 162 -315 316 -389 163 -78 370 -114 665 -113 351 0 591 77 756 241
234 235 256 704 45 979 -166 215 -539 325 -992 291z m296 -397 c68 -36 104
-98 127 -214 19 -103 14 -265 -13 -358 -22 -79 -78 -143 -139 -160 -52 -14
-169 -14 -220 0 -60 17 -119 81 -141 154 -23 76 -26 311 -5 395 38 152 108
209 257 210 70 0 89 -4 134 -27z"/>
<path d="M3172 1836 c-56 -74 -103 -138 -104 -144 -4 -11 204 -292 213 -289 9
3 219 274 219 282 0 10 -212 285 -219 285 -4 0 -53 -60 -109 -134z"/>
<path d="M440 2426 c0 -2 30 -25 66 -51 36 -26 78 -65 95 -87 l29 -41 0 -539
c0 -446 -2 -544 -14 -566 -17 -32 -74 -88 -135 -131 l-44 -31 514 0 514 0 -51
34 c-28 19 -65 49 -83 67 -62 61 -65 73 -69 206 l-2 123 147 0 c82 0 165 -5
186 -11 76 -21 122 -93 134 -214 5 -47 3 -54 -27 -88 -18 -21 -59 -53 -91 -73
-32 -20 -59 -38 -59 -40 0 -2 233 -4 518 -4 l517 0 -77 46 c-42 25 -92 63
-111 83 -33 36 -35 43 -42 137 -9 121 -26 190 -67 266 -32 60 -97 137 -133
156 -19 10 -18 12 17 49 97 100 141 232 120 360 -22 132 -90 217 -226 283
-138 67 -178 70 -953 70 -370 0 -673 -2 -673 -4z m1228 -389 c59 -32 76 -113
38 -172 -30 -46 -70 -54 -262 -55 l-179 -2 -3 113 c-1 62 0 119 3 127 8 23
358 13 403 -11z"/>
<path d="M4160 2426 c0 -2 26 -19 58 -39 31 -19 73 -52 92 -72 l35 -36 3 -547
c2 -390 -1 -554 -9 -574 -11 -27 -71 -88 -139 -140 l-35 -27 420 0 420 0 -39
32 c-22 18 -56 46 -75 64 l-36 31 -3 292 c-2 180 1 291 7 288 5 -1 134 -162
286 -355 l277 -353 806 0 805 0 -56 59 c-32 33 -57 67 -57 77 0 41 24 95 44
99 22 4 395 40 532 51 l80 7 27 -60 c40 -90 37 -107 -31 -173 l-58 -57 570 -6
c872 -11 2755 -8 2886 3 501 43 777 215 861 537 37 142 24 367 -28 492 -66
158 -204 275 -401 341 -177 59 -226 63 -904 67 -438 3 -618 1 -618 -6 0 -6 4
-11 8 -11 4 0 36 -21 71 -46 106 -77 101 -42 101 -653 0 -374 -3 -535 -12
-563 -11 -36 -77 -108 -100 -108 -4 0 -8 133 -8 295 0 162 -3 295 -7 295 -5 0
-26 -26 -48 -56 -55 -78 -115 -128 -176 -147 -43 -14 -97 -17 -330 -17 l-279
0 0 418 0 419 30 41 c28 39 115 115 142 125 41 14 -48 17 -496 15 l-497 -3 75
-52 c120 -84 111 -30 111 -668 0 -607 2 -587 -64 -634 l-29 -21 -69 73 c-92
97 -114 134 -452 762 l-290 540 -371 3 c-203 1 -370 0 -370 -3 0 -3 18 -23 39
-45 50 -52 57 -79 32 -135 -34 -76 -502 -937 -547 -1005 -24 -36 -65 -89 -92
-118 l-50 -54 -26 18 c-15 9 -38 36 -52 59 l-25 43 3 540 c3 624 -8 561 117
647 l73 50 -217 3 c-119 1 -310 1 -426 0 l-209 -3 54 -42 c30 -23 66 -62 80
-86 l26 -44 -2 -278 -3 -277 -260 333 c-143 184 -273 348 -289 366 l-28 33
-429 0 c-236 0 -429 -2 -429 -4z m6777 -376 c99 -13 141 -29 193 -76 62 -56
75 -104 74 -269 0 -106 -5 -151 -18 -185 -27 -71 -62 -117 -113 -147 -47 -27
-53 -28 -215 -31 l-168 -4 0 361 0 361 83 0 c45 0 119 -5 164 -10z m-3600
-334 c30 -54 52 -103 50 -109 -3 -11 -233 -38 -243 -28 -7 7 120 241 130 238
4 -1 33 -47 63 -101z"/>
</g>
</svg>
